<?xml version="1.0"?><svg enable-background="new 0 0 344.0321 459.6047" id="Layer_1" version="1.1" viewBox="0 0 344.0321 459.6047" xml:space="preserve" xmlns="http://www.w3.org/2000/svg" xmlns:xlink="http://www.w3.org/1999/xlink"><g><circle cx="165" cy="268.4163" fill="#AFB0CC" r="165"/><path d="M189.0381,376.8836c-8.2842-7.7852-31.5244-28.5679-39.1494-30.8936l-0.9248-0.2827   c-9.4502-2.8862-18.377-5.6128-29.6484-6.2388c-5.7803-0.3213-14.4524-4.1658-22.7173-8.3857   c-2.6169,1.2013-5.3494,2.5471-6.1997,3.1133c-1.6016,3.5371-13.8975,36.8804-15.4805,43.8472   c-1.5389,6.7727-7.0271,19.5436-9.7808,23.6571c0.5815,4.9792,3.5569,31.6123,2.3862,45.603   c96.7429,24.3984,193.6937,5.4713,207.4399,2.5521l-4.0195-19.0782C260.4999,426.4921,210.334,397.688,189.0381,376.8836z" fill="#FFFFFF"/><path d="M74.9297,319.9022c-0.8291-0.2466-1.7559-0.4834-2.748-0.7373c-4.1946-1.0742-9.7841-2.5229-14.3352-6.2276   c-5.103,6.1677-23.5978,33.8237-35.0857,51.3902l-3.3477-2.1895c0.4432-0.6778,1.0328-1.5784,1.7407-2.6575   c-3.644-0.5625-10.5491-1.8059-14.2229-2.8386c-7.3563,18.8881,5.9658,41.7193,6.1052,41.9546   c0.2305,0.3882,0.3232,0.8442,0.2617,1.2915c-0.3926,2.8848,0.8535,6.4219,3.6035,10.2285   c1.2949,1.4731,14.1553,7.7979,17.9697,8.2104c3.1777,0.3442,6.4248-1.5747,6.9033-2.3511   c0.4697-1.5073,3.1826-4.4746,8.0654-8.8237c0.1367-0.1216,0.2891-0.2241,0.4541-0.3042c2.2656-1.104,9.1592-4.4629,11.2236-6.9624   c1.7354-2.1001,7.8584-15.5068,9.5-22.729c1.3916-6.1221,14.9482-44.0269,16.2988-45.5708   c0.2068-0.2366,0.7631-0.8612,4.8208-2.8295c-2.0684-1.0986-4.0721-2.1848-5.9487-3.2027   C81.1455,322.8177,76.79,320.4554,74.9297,319.9022z" fill="#FFFFFF"/><path d="M318.9072,275.8148c2.4102-21.2427-5.3877-40.6719-12.3545-53.23   c-5.5938-10.084-15.2539-17.5361-26.5029-20.4458c-18.1729-4.6992-38.0127-12.6147-52.499-18.3945   c-2.6758-1.0679-5.1738-2.0645-7.4482-2.9556c-4.6885,8.4434-25.2812,40.1602-66.6611,33.1494   c-34.5381-5.8486-40.3799-22.498-42.5791-28.7661c-0.042-0.1216-0.0869-0.25-0.1328-0.3774   c-0.9639,0.5894-2.3828,1.7109-3.501,2.5942c-1.6494,1.3032-3.5195,2.7808-5.4648,3.9849   c-1.1885,0.7358-3.7109,1.4844-8.8477,2.9741c-15.2822,4.4316-47.084,13.6528-62.8711,33.1348   c-14.5664,17.9756-13.9336,43.3364-13.5557,58.4893c0.1592,6.3472,0.2637,10.541-0.6855,12.8047   c-2.7227,6.4932-5.665,30.439-5.6943,30.6802c-0.0195,0.1636-0.0605,0.3242-0.1191,0.4775   c-0.0352,0.0918-3.5283,9.1885-3.835,13.6201c-0.4678,6.7812,0.0703,8.5474,0.6045,8.835c1.6602,0.877,15.25,3.2944,16.7861,3.3955   l-0.001,0.0571c8.6293-13.1071,25.7736-38.9017,31.4741-45.7c-1.2273-1.4823-2.311-3.2087-3.1636-5.2615   c-0.1377-0.3408-1.2422-3.2417-0.001-5.8804c0.4902-1.0415,1.5469-2.4336,3.8008-3.1504c5.0537-1.6079,8.0713,0.9321,8.8037,1.6592   c0.6074,0.4795,4.5967,3.5527,9.8457,5.8135c-3.373-2.4116-6.7422-4.7075-8.377-5.5024c-4.6299-2.252-9.5234-8.8691-7.998-12.2988   c0.1025-0.2324,0.209-0.5269,0.332-0.8628c0.79-2.1597,2.2773-6.2217,6.5986-7.9043c-1.8242-2.4443-3.415-5.0039-3.415-6.4937   c0-2.8101,1.6094-7.1895,5.7383-9.0835c-1.251-2.1909-2.4033-5.3257-0.5996-7.5996c1.4609-1.8413,4.4834-5.6689,9.5146-5.2075   c1.5442,0.1437,3.5735,0.4847,5.6061,0.9102c1.3645-1.8477,4.3143-5.8337,5.5863-7.4869c1.5225-1.9795,4.4736-4.4087,9.8848-4.7402   c1.7432-0.1069,5.416-2.2798,8.0977-3.8667c3.7812-2.2378,5.5215-3.2104,7.0195-2.8535c2.4355,0.5801,3.248,4.5615,3.4844,6.2466   c0.3563,2.5439,0.1167,4.7676-0.613,6.4985c1.2211,0.2986,2.4154,0.6685,3.5078,1.0291   c4.8811-2.627,30.6106-16.3052,37.366-16.4699c5.3777-0.1412,8.0579,1.9861,9.2778,3.4858   c1.5431-0.7451,2.7065-1.1743,3.3394-1.1743c0.0117,0,0.0234,0.0005,0.0352,0.0005c2.9844,0.0786,6.3682,0.1675,8.0244,3.6089   c0.8057,1.6724,1.415,4.563,0.4844,7.2061c-0.3,0.8532-0.7434,1.6095-1.3076,2.2589c0.1758,0.215,0.3503,0.4414,0.5205,0.6967   c2.7559,4.1349-0.9333,11.1684-6.1091,14.8282c0.8463,0.1765,1.6809,0.5016,2.4597,1.0502   c1.7012,1.1997,2.1357,2.6582,2.2002,3.6704c0.1641,2.582-1.9092,4.7642-2.4512,5.2881l-9.5942,11.2458   c1.9114,5.2903,3.6785,11.0949,3.5903,14.8353c-0.1543,6.5879,8.6953,12.0552,9.7051,12.6572   c0.041,0.0244,0.0811,0.0503,0.1211,0.0781c0.626,0.4375,62.9316,43.8374,85.2686,49.4619   c1.439,0.3624,2.8157,0.7025,4.1503,1.0295c-1.924-18.3409-0.2186-68.6984-0.1415-70.9387l3.998,0.1377   c-0.0137,0.4004-0.9594,28.3159-0.7197,50.2991c15.3508-8.2916,50.3514-7.182,54.4082-7.0223l15.8623-4.5317   c-6.0381-12.5337-19.5234-47.4707-20.1318-49.0488C318.9121,276.4593,318.8711,276.1351,318.9072,275.8148z" fill="#FFFFFF"/><path d="M282.627,433.4959c5.8857,4.751,12.542,10.1284,19.623,8.9839   c13.0156-6.7227,16.5342-10.5303,23.666-34.0835c6.3121-20.843-1.1462-66.295-2.4928-74.0474   c-1.0461-0.0437-41.3478-1.6333-54.463,7.647c0.1396,6.9503,0.4268,12.9794,0.9377,16.8763   c0.2139,0.0517,0.4358,0.1055,0.647,0.1565c16.8857,4.0811,25.3604,6.1294,35.2607,16.1768l-2.8496,2.8076   c-9.0986-9.2349-16.6992-11.0718-33.3506-15.0962c-2.748-0.6641-5.7266-1.3838-8.9795-2.2031   c-22.8965-5.7651-83.2119-47.709-86.5254-50.0215c-2.1201-1.2739-11.792-7.5645-11.5908-16.1484   c0.1123-4.8306-3.9365-15.0874-6.1123-20.5977c-0.9707-2.458-1.4443-3.6694-1.5986-4.3374   c-0.3721-1.6118-4.6807-7.5205-7.9893-8.9648c-2.3701-1.0352-6.9131-4.249-11.3066-7.3569   c-2.6396-1.8672-5.9248-4.1914-6.7148-4.519c-1.21-0.5024-3.5049-0.0386-4.875,0.2393c-0.5117,0.1035-0.9473,0.189-1.2656,0.2285   c-0.8955,0.1147-1.8955-0.208-4.0654-0.9409c-2.3701-0.8013-5.9482-2.0156-8.3398-1.8037c-0.29,0.0254-0.6602,0.0962-0.7783,0.2886   c-0.3096,0.5049-0.082,1.896,0.2197,2.7075c4.6787,8.46,15.335,10.1929,15.4424,10.2095c0.5645,0.0869,1.0645,0.4106,1.375,0.8901   c1.3252,2.0493,4.8486,4.9116,6.0947,5.8413c0.5771,0.4312,0.8789,1.1401,0.7871,1.855c-0.0908,0.7153-0.5586,1.3262-1.2256,1.5991   c-3.0205,1.2275-21.8242-4.6445-24.998-6.3691c-2.9053-1.5791-12.3252-5.4717-16.8516-7.3423   c-1.3076-0.5405-2.3066-0.9531-2.7969-1.1636c-2.125-0.9111-8.5117-2.3501-11.7832-2.6548   c-2.3818-0.2202-4.0615,1.2559-6.0098,3.7104c-0.3584,0.4528,0.4438,2.5715,1.799,4.4523   c2.0527,0.4192,7.5479,1.7198,10.8055,4.1879c3.457,2.6187,10.2217,6.1724,10.2891,6.208l-1.8555,3.543   c-0.29-0.1514-7.126-3.7427-10.8486-6.5625c-2.5071-1.8995-7.4388-3.1292-9.5276-3.5251   c-4.4507,0.7396-4.8921,5.1528-4.9304,5.8123c0.2527,0.8926,2.2701,3.8505,4.415,6.4741c0.8538,0.789,8.1597,7.4164,14.9854,9.772   l-1.3047,3.7812c-6.8147-2.3521-13.6665-8.1647-15.8218-10.0942c-3.4536,0.5611-4.6787,3.1163-5.7056,5.9219   c-0.1416,0.3867-0.2695,0.73-0.3896,1.0127c-0.0205,1.2246,2.7363,5.5649,6.0498,7.1772   c4.2031,2.0444,16.6787,11.5288,17.208,11.9316c0.6982,0.5322,0.9688,1.458,0.665,2.2822s-1.1172,1.353-1.9863,1.3062   c-11.0928-0.6064-21.2881-8.8506-21.7168-9.2012c-0.0898-0.0732-0.1729-0.1548-0.249-0.2427   c-0.1348-0.1416-1.6436-1.6206-4.7305-0.6382c-1.0557,0.3359-1.3066,0.8589-1.3887,1.0308   c-0.4326,0.9014-0.0762,2.2754,0.082,2.686c3.4414,8.2827,11.6318,10.3804,17.6123,11.9116   c1.0459,0.2676,2.0215,0.5186,2.8965,0.7783c2.2598,0.6719,6.5693,3.0098,12.0254,5.9692   c10.1328,5.4966,24.0098,13.0244,31.4424,13.437c11.7549,0.6533,20.9053,3.4482,30.5938,6.4072l0.9248,0.2822   c10.0732,3.0732,39.501,30.6587,40.749,31.8315c21.3535,20.8613,74.7021,51.3389,81.4473,53.3779   C276.1123,428.2381,279.1309,430.6746,282.627,433.4959z" fill="#FFFFFF"/><path d="M110.8356,242.4801c0.6237-0.4781,0.8873-1.4986,0.9877-2.0975c0.3701-2.2002-0.1973-4.7339-0.6914-5.8901   c-0.96,0.4438-2.5703,1.3965-3.8213,2.1367c-3.5322,2.0898-7.1846,4.2505-9.8906,4.416c-3.1387,0.1924-5.4805,1.2646-6.959,3.187   c-0.9805,1.2744-3.0424,4.0505-4.531,6.0621c1.2908,0.3559,2.4067,0.7151,3.156,1.0366c0.4814,0.2061,1.4639,0.6118,2.749,1.1431   c1.3417,0.5544,3.0007,1.2404,4.7627,1.9765c0.7795-1.1426,1.8015-2.6763,2.2539-3.4911c1.001-1.7998,2.7646-2.2007,4.8057-2.6646   c0.5066-0.1152,1.0605-0.2432,1.6641-0.3973c-0.043-1.0503,0.1143-2.1993,0.7324-3.2076c0.5449-0.8906,1.6543-1.9922,3.8408-2.1831   C110.2008,242.4797,110.5182,242.4796,110.8356,242.4801z" fill="#FFFFFF"/><path d="M125.7422,178.5882c-1.9634,1.8226-7.8562,5.5497-10.4177,7.1403   c2.5657,6.5868,9.6752,19.3363,38.7849,24.2665c35.0465,5.9357,54.1831-17.7969,60.783-28.2595   c-1.2964-3.2849-6.2502-17.0629-3.9851-30.3918c-3.7039,0.8323-7.9163,1.3724-12.6904,1.3724   c-11.2646,0-25.5459-2.9424-43.0332-11.7905l1.8066-3.5693c42.0391,21.272,64.0586,7.0908,69.8066,2.2388   c6.0449-5.105,13.9414-31.1533,16.5361-39.7129c0.4404-1.4526,0.7852-2.5884,1.0156-3.3018   c1.4111-4.3613,2.3096-22.4653,2.543-29.23l-0.083-1.0698c-1.2881-16.5483-3.6865-47.3516-36.2373-58.9619   c-32.5635-11.6133-59.707,10.0278-69.5088,23.0962c-7.3207,9.7623-11.5887,30.6334-12.864,37.673   c8.3489,0.0737,9.5793,4.4194,9.697,4.9608l-3.9102,0.8457c0,0,0.0039,0.0449,0.0322,0.1201   c-0.0098-0.0244-0.9971-2.4438-8.04-1.8525c-1.6514,0.1377-2.8682,0.7476-3.7188,1.8647   c-1.9971,2.6211-1.6211,7.5303-1.3076,9.2007c0.0107,0.0557,0.0195,0.1152,0.0254,0.1714   c0.0107,0.106,1.1094,10.6958,4.0391,17.7046c2.501,5.9878,10.7012,5.4985,10.7891,5.4917   c0.9854-0.0605,1.8477,0.5762,2.0781,1.5205c0.0781,0.3169,1.8818,7.9067,0.71,21.4546   C137.5811,141.2859,128.9639,175.596,125.7422,178.5882z" fill="#FFFFFF"/><path d="M102.3486,252.9017c-0.4497,0.8101-1.2817,2.0796-1.9919,3.1336c3.5964,1.5322,7.0444,3.0565,8.7126,3.9631   c2.4424,1.3271,10.2686,3.6602,15.9082,5.0278c-0.4805-0.5088-0.9316-1.0278-1.3223-1.541   c-2.9202-0.6279-12.3788-3.2761-17.2664-11.7327c-0.6906,0.178-1.3123,0.322-1.845,0.4427   C103.4824,252.4363,102.4805,252.6644,102.3486,252.9017z" fill="#FFFFFF"/><path d="M161.3108,275.5223l8.2273-9.6431c0.0537-0.0625,0.1104-0.1216,0.1709-0.1768   c0.5518-0.5156,1.3037-1.5669,1.2617-2.1826c-0.0059-0.0757-0.0215-0.3062-0.5127-0.6523   c-1.8604-1.3115-5.3154,0.2832-6.3809,0.9453l-0.0327-0.0527c-2.2238,2.0646-4.2513,4.097-5.2888,5.1538   c0.1985,0.6174,0.7883,2.1111,1.3616,3.5634C160.4839,273.4058,160.8898,274.436,161.3108,275.5223z" fill="#FFFFFF"/><path d="M156.8856,265.1156c2.5804-2.5892,7.4725-7.336,10.9523-9.7169c4.3037-2.9438,6.2832-7.9048,5.2461-9.46   c-0.8848-1.3257-1.4434-1.3892-3.3291-0.3687c-1.0059,0.5439-8.8193,6.2935-15.6602,11.4272l-2.4004-3.1992   c2.3955-1.7983,14.4346-10.8149,16.1562-11.7466c0.7876-0.4256,2.5114-1.3496,4.4224-1.145   c0.5427-0.3518,0.9282-0.8311,1.1528-1.4707c0.4658-1.3228,0.1943-3.0854-0.3145-4.1426   c-0.4863-1.0103-1.2773-1.2549-4.4199-1.3428c-2.3859,0.5274-16.0358,9.1333-28.6472,17.6456   c3.293,2.3143,6.7452,4.6741,8.3669,5.3818C151.4907,258.3226,154.8551,262.0406,156.8856,265.1156z" fill="#FFFFFF"/><path d="M156.1357,231.636c-3.8273,0.093-18.4041,7.0383-29.8169,12.9561c1.3418-0.1038,2.7535-0.0359,4.0015,0.481   c1.0208,0.4235,2.9838,1.7667,6.2312,4.057c7.3793-5.0079,18.005-12.0569,25.1095-16.0683   C160.8071,232.3656,159.1602,231.5507,156.1357,231.636z" fill="#FFFFFF"/><path d="M322.9355,275.7742c2.3574-22.1006-5.6885-42.1567-12.8848-55.1299c-6.123-11.0386-16.6934-19.1953-28.999-22.3779   c-17.9277-4.6357-37.6309-12.4971-52.0186-18.2373c-3.3555-1.3389-6.4316-2.5659-9.1406-3.6152   c-0.8828-0.3416-1.8569-0.0143-2.3722,0.7466c-1.8297-5.6561-4.6251-16.8354-2.3051-26.9768   c7.1895-2.2935,11.8711-5.5981,14.1616-7.5325c6.1602-5.2017,12.7402-24.9688,17.7842-41.6089   c0.4316-1.4214,0.7676-2.5322,0.9941-3.2305c1.8809-5.8149,2.7041-29.4346,2.7383-30.4375c0.002-0.0752,0.001-0.1504-0.0049-0.2251   l-0.0928-1.1787c-1.3584-17.4526-3.8867-49.9375-38.8809-62.4194c-34.7656-12.4023-63.6396,10.5806-74.0518,24.4634   c-8.3499,11.1336-12.7587,34.3726-13.7922,40.4152c-2.0703,0.478-3.7534,1.538-5.0037,3.1849   c-3.3145,4.3667-2.2266,11.335-2.0625,12.2671c0.1152,1.1021,1.2646,11.4561,4.3193,18.7642   c2.7471,6.5752,9.6523,7.7554,12.9531,7.9331c0.4375,2.7578,1.1475,9.1934,0.3311,18.647   c-1.1592,13.4126-9.6377,43.7441-11.6416,46.4805c-1.5035,1.3641-6.127,4.3535-9.1055,6.2198   c-0.4379-0.8292-1.0039-1.3988-1.9756-1.5069c-1.9941-0.2261-4.1572,1.4771-7.1367,3.8311   c-1.5654,1.2368-3.3408,2.6387-5.0908,3.7222c-0.7764,0.4805-4.2148,1.4775-7.8564,2.5337   c-15.6729,4.5449-48.2881,14.0024-64.8643,34.458c-15.4941,19.1211-14.8389,45.4038-14.4463,61.1074   c0.124,4.9805,0.2412,9.6846-0.377,11.1582c-2.8125,6.7075-5.6074,28.7725-5.9453,31.499   c-0.584,1.5386-3.6826,9.8945-4.0039,14.5498c-0.3318,4.8169-0.4426,9.0467,1.2607,11.3696   c-7.9243,19.3003,3.6157,41.45,5.835,45.4063c-0.2764,3.7559,1.2354,8.0264,4.3984,12.4043   c1.9834,2.7471,16.5928,9.3921,20.7822,9.8447c0.377,0.041,0.7607,0.0605,1.1484,0.0605c4.3301-0.0005,9.1797-2.4375,10.001-5.189   c0.4902-0.9526,3.7969-4.2471,6.7051-6.8535c3.2385-1.583,6.6287-3.3484,9.2007-5.1646c1.0012,9.283,3.3269,33.3675,1.7856,44.1602   l3.959,0.5654c0.1138-0.7968,0.2058-1.6646,0.2822-2.5793c1.1707-13.9907-1.8047-40.6238-2.3862-45.603   c2.7537-4.1135,8.2418-16.8844,9.7808-23.6571c1.583-6.9668,13.8789-40.3101,15.4805-43.8472   c0.8503-0.5662,3.5828-1.912,6.1997-3.1133c8.2649,4.22,16.937,8.0645,22.7173,8.3857c11.2715,0.626,20.1982,3.3525,29.6484,6.2388   l0.9248,0.2827c7.625,2.3257,30.8652,23.1084,39.1494,30.8936c21.2959,20.8044,71.4618,49.6085,81.9058,53.8936l4.0195,19.0782   l0.4331,2.0555l3.9141-0.8242l-3.7983-18.0282c1.4294,0.9943,2.99,2.2488,4.6021,3.5502   c5.6035,4.5229,12.4238,10.0288,20.1807,10.0283c0.9736,0,1.9629-0.0864,2.9648-0.2729c0.1914-0.0356,0.377-0.0986,0.5498-0.188   c15.1201-7.7788,18.7559-12.9126,25.9346-36.6206c6.7434-22.2668-1.1541-69.0208-2.4318-76.2023l15.2697-4.3626   c0.5801-0.166,1.0557-0.5854,1.291-1.1416c0.2363-0.5562,0.208-1.1895-0.0762-1.7227   C338.9258,316.9935,324.6836,280.2903,322.9355,275.7742z M323.2979,330.3401c-4.0568-0.1597-39.0574-1.2693-54.4082,7.0223   c-0.2396-21.9833,0.7061-49.8987,0.7197-50.2991l-3.998-0.1377c-0.0771,2.2403-1.7825,52.5978,0.1415,70.9387   c-1.3346-0.3271-2.7113-0.6672-4.1503-1.0295c-22.3369-5.6245-84.6426-49.0244-85.2686-49.4619   c-0.04-0.0278-0.0801-0.0537-0.1211-0.0781c-1.0098-0.6021-9.8594-6.0693-9.7051-12.6572c0.0881-3.7404-1.679-9.545-3.5903-14.8353   l9.5942-11.2458c0.542-0.5239,2.6152-2.7061,2.4512-5.2881c-0.0645-1.0122-0.499-2.4707-2.2002-3.6704   c-0.7788-0.5486-1.6134-0.8738-2.4597-1.0502c5.1758-3.6598,8.865-10.6933,6.1091-14.8282   c-0.1702-0.2553-0.3447-0.4818-0.5205-0.6967c0.5642-0.6494,1.0076-1.4056,1.3076-2.2589   c0.9307-2.6431,0.3213-5.5337-0.4844-7.2061c-1.6562-3.4414-5.04-3.5303-8.0244-3.6089c-0.0117,0-0.0234-0.0005-0.0352-0.0005   c-0.6328,0-1.7963,0.4293-3.3394,1.1743c-1.22-1.4997-3.9001-3.627-9.2778-3.4858c-6.7554,0.1647-32.4849,13.843-37.366,16.4699   c-1.0924-0.3605-2.2867-0.7304-3.5078-1.0291c0.7297-1.7308,0.9694-3.9545,0.613-6.4985   c-0.2363-1.6851-1.0488-5.6665-3.4844-6.2466c-1.498-0.3569-3.2383,0.6157-7.0195,2.8535   c-2.6816,1.5869-6.3545,3.7598-8.0977,3.8667c-5.4111,0.3315-8.3623,2.7607-9.8848,4.7402   c-1.272,1.6532-4.2218,5.6392-5.5863,7.4869c-2.0326-0.4255-4.0619-0.7665-5.6061-0.9102   c-5.0312-0.4614-8.0537,3.3662-9.5146,5.2075c-1.8037,2.2739-0.6514,5.4087,0.5996,7.5996   c-4.1289,1.894-5.7383,6.2734-5.7383,9.0835c0,1.4897,1.5908,4.0493,3.415,6.4937c-4.3213,1.6826-5.8086,5.7446-6.5986,7.9043   c-0.123,0.3359-0.2295,0.6304-0.332,0.8628c-1.5254,3.4297,3.3682,10.0469,7.998,12.2988c1.6348,0.7949,5.0039,3.0908,8.377,5.5024   c-5.249-2.2607-9.2383-5.334-9.8457-5.8135c-0.7324-0.7271-3.75-3.2671-8.8037-1.6592c-2.2539,0.7168-3.3105,2.1089-3.8008,3.1504   c-1.2412,2.6387-0.1367,5.5396,0.001,5.8804c0.8525,2.0528,1.9363,3.7792,3.1636,5.2615   c-5.7006,6.7983-22.8448,32.5929-31.4741,45.7l0.001-0.0571c-1.5361-0.1011-15.126-2.5186-16.7861-3.3955   c-0.5342-0.2876-1.0723-2.0537-0.6045-8.835c0.3066-4.4316,3.7998-13.5283,3.835-13.6201c0.0586-0.1533,0.0996-0.314,0.1191-0.4775   c0.0293-0.2412,2.9717-24.187,5.6943-30.6802c0.9492-2.2637,0.8447-6.4575,0.6855-12.8047   c-0.3779-15.1528-1.0107-40.5137,13.5557-58.4893c15.7871-19.4819,47.5889-28.7031,62.8711-33.1348   c5.1367-1.4897,7.6592-2.2383,8.8477-2.9741c1.9453-1.2041,3.8154-2.6816,5.4648-3.9849c1.1182-0.8833,2.5371-2.0049,3.501-2.5942   c0.0459,0.1274,0.0908,0.2559,0.1328,0.3774c2.1992,6.2681,8.041,22.9175,42.5791,28.7661   c41.3799,7.0107,61.9727-24.7061,66.6611-33.1494c2.2744,0.8911,4.7725,1.8877,7.4482,2.9556   c14.4863,5.7798,34.3262,13.6953,52.499,18.3945c11.249,2.9097,20.9092,10.3618,26.5029,20.4458   c6.9668,12.5581,14.7646,31.9873,12.3545,53.23c-0.0361,0.3203,0.0049,0.6445,0.1211,0.9448   c0.6084,1.5781,14.0938,36.5151,20.1318,49.0488L323.2979,330.3401z M136.5515,249.1301c-3.2474-2.2903-5.2104-3.6335-6.2312-4.057   c-1.2479-0.5169-2.6597-0.5847-4.0015-0.481c11.4128-5.9177,25.9896-12.863,29.8169-12.9561   c3.0244-0.0854,4.6714,0.7296,5.5253,1.4257C154.5565,237.0732,143.9308,244.1222,136.5515,249.1301z M168.6914,233.9505   c3.1426,0.0879,3.9336,0.3325,4.4199,1.3428c0.5088,1.0571,0.7803,2.8198,0.3145,4.1426   c-0.2246,0.6396-0.6101,1.1189-1.1528,1.4707c-1.911-0.2046-3.6348,0.7194-4.4224,1.145   c-1.7217,0.9316-13.7607,9.9482-16.1562,11.7466l2.4004,3.1992c6.8408-5.1338,14.6543-10.8833,15.6602-11.4272   c1.8857-1.0205,2.4443-0.957,3.3291,0.3687c1.0371,1.5552-0.9424,6.5161-5.2461,9.46c-3.4797,2.3809-8.3718,7.1276-10.9523,9.7169   c-2.0305-3.075-5.3949-6.793-8.4745-8.1378c-1.6217-0.7077-5.074-3.0674-8.3669-5.3818   C152.6556,243.0838,166.3055,234.4779,168.6914,233.9505z M164.0444,263.7601l0.0327,0.0527   c1.0654-0.6621,4.5205-2.2568,6.3809-0.9453c0.4912,0.3462,0.5068,0.5767,0.5127,0.6523c0.042,0.6157-0.71,1.667-1.2617,2.1826   c-0.0605,0.0552-0.1172,0.1143-0.1709,0.1768l-8.2273,9.6431c-0.421-1.0862-0.8269-2.1165-1.1936-3.0449   c-0.5732-1.4523-1.1631-2.946-1.3616-3.5634C159.7931,267.8572,161.8207,265.8248,164.0444,263.7601z M106.3889,251.7524   c4.8876,8.4566,14.3462,11.1048,17.2664,11.7327c0.3906,0.5132,0.8418,1.0322,1.3223,1.541   c-5.6396-1.3677-13.4658-3.7007-15.9082-5.0278c-1.6682-0.9066-5.1162-2.4308-8.7126-3.9631   c0.7102-1.054,1.5422-2.3235,1.9919-3.1336c0.1318-0.2373,1.1338-0.4653,2.1953-0.7065   C105.0767,252.0744,105.6984,251.9305,106.3889,251.7524z M106.0537,244.6898c-0.6182,1.0083-0.7754,2.1573-0.7324,3.2076   c-0.6035,0.1542-1.1575,0.2822-1.6641,0.3973c-2.041,0.4639-3.8047,0.8647-4.8057,2.6646   c-0.4524,0.8148-1.4744,2.3486-2.2539,3.4911c-1.762-0.7361-3.421-1.4221-4.7627-1.9765c-1.2852-0.5312-2.2676-0.937-2.749-1.1431   c-0.7493-0.3214-1.8652-0.6807-3.156-1.0366c1.4886-2.0115,3.5505-4.7877,4.531-6.0621c1.4785-1.9224,3.8203-2.9946,6.959-3.187   c2.7061-0.1655,6.3584-2.3262,9.8906-4.416c1.251-0.7402,2.8613-1.6929,3.8213-2.1367c0.4941,1.1562,1.0615,3.6899,0.6914,5.8901   c-0.1003,0.5989-0.364,1.6194-0.9877,2.0975c-0.3174-0.0005-0.6348-0.0004-0.941,0.0266   C107.708,242.6976,106.5986,243.7991,106.0537,244.6898z M137.8828,108.1155c-0.2305-0.9443-1.0928-1.5811-2.0781-1.5205   c-0.0879,0.0068-8.2881,0.4961-10.7891-5.4917c-2.9297-7.0088-4.0283-17.5986-4.0391-17.7046   c-0.0059-0.0562-0.0146-0.1157-0.0254-0.1714c-0.3135-1.6704-0.6895-6.5796,1.3076-9.2007   c0.8506-1.1172,2.0674-1.7271,3.7188-1.8647c7.043-0.5913,8.0303,1.8281,8.04,1.8525c-0.0283-0.0752-0.0322-0.1201-0.0322-0.1201   l3.9102-0.8457c-0.1177-0.5414-1.3481-4.8871-9.697-4.9608c1.2753-7.0396,5.5433-27.9108,12.864-37.673   c9.8018-13.0684,36.9453-34.7095,69.5088-23.0962c32.5508,11.6104,34.9492,42.4136,36.2373,58.9619l0.083,1.0698   c-0.2334,6.7646-1.1318,24.8687-2.543,29.23c-0.2305,0.7134-0.5752,1.8491-1.0156,3.3018   c-2.5947,8.5596-10.4912,34.6079-16.5361,39.7129c-5.748,4.8521-27.7676,19.0332-69.8066-2.2388l-1.8066,3.5693   c17.4873,8.8481,31.7686,11.7905,43.0332,11.7905c4.7742,0,8.9866-0.5402,12.6904-1.3724   c-2.2651,13.3289,2.6887,27.1069,3.9851,30.3918c-6.5999,10.4626-25.7365,34.1952-60.783,28.2595   c-29.1097-4.9302-36.2192-17.6797-38.7849-24.2665c2.5615-1.5906,8.4543-5.3177,10.4177-7.1403   c3.2217-2.9922,11.8389-37.3022,12.8506-49.0181C139.7646,116.0223,137.9609,108.4324,137.8828,108.1155z M87.3164,331.5858   c-1.3506,1.5439-14.9072,39.4487-16.2988,45.5708c-1.6416,7.2222-7.7646,20.6289-9.5,22.729   c-2.0645,2.4995-8.958,5.8584-11.2236,6.9624c-0.165,0.0801-0.3174,0.1826-0.4541,0.3042   c-4.8828,4.3491-7.5957,7.3164-8.0654,8.8237c-0.4785,0.7764-3.7256,2.6953-6.9033,2.3511   c-3.8145-0.4126-16.6748-6.7373-17.9697-8.2104c-2.75-3.8066-3.9961-7.3438-3.6035-10.2285   c0.0615-0.4473-0.0312-0.9033-0.2617-1.2915c-0.1394-0.2353-13.4615-23.0665-6.1052-41.9546   c3.6738,1.0327,10.5789,2.2761,14.2229,2.8386c-0.7079,1.0792-1.2975,1.9797-1.7407,2.6575l3.3477,2.1895   c11.4879-17.5665,29.9827-45.2225,35.0857-51.3902c4.5511,3.7047,10.1406,5.1534,14.3352,6.2276   c0.9922,0.2539,1.9189,0.4907,2.748,0.7373c1.8604,0.5532,6.2158,2.9155,11.2588,5.6514c1.8766,1.0179,3.8804,2.1041,5.9487,3.2027   C88.0795,330.7245,87.5232,331.3492,87.3164,331.5858z M151.0566,342.1639l-0.9248-0.2822   c-9.6885-2.959-18.8389-5.7539-30.5938-6.4072c-7.4326-0.4126-21.3096-7.9404-31.4424-13.437   c-5.4561-2.9595-9.7656-5.2974-12.0254-5.9692c-0.875-0.2598-1.8506-0.5107-2.8965-0.7783   c-5.9805-1.5312-14.1709-3.6289-17.6123-11.9116c-0.1582-0.4106-0.5146-1.7847-0.082-2.686   c0.082-0.1719,0.333-0.6948,1.3887-1.0308c3.0869-0.9824,4.5957,0.4966,4.7305,0.6382c0.0762,0.0879,0.1592,0.1694,0.249,0.2427   c0.4287,0.3506,10.624,8.5947,21.7168,9.2012c0.8691,0.0469,1.6826-0.4819,1.9863-1.3062s0.0332-1.75-0.665-2.2822   c-0.5293-0.4028-13.0049-9.8872-17.208-11.9316c-3.3135-1.6123-6.0703-5.9526-6.0498-7.1772   c0.1201-0.2827,0.248-0.626,0.3896-1.0127c1.0269-2.8056,2.252-5.3608,5.7056-5.9219c2.1553,1.9295,9.0071,7.7422,15.8218,10.0942   l1.3047-3.7812c-6.8257-2.3557-14.1316-8.983-14.9854-9.772c-2.1449-2.6235-4.1624-5.5814-4.415-6.4741   c0.0383-0.6594,0.4797-5.0726,4.9304-5.8123c2.0887,0.3959,7.0205,1.6257,9.5276,3.5251   c3.7227,2.8198,10.5586,6.4111,10.8486,6.5625l1.8555-3.543c-0.0674-0.0356-6.832-3.5894-10.2891-6.208   c-3.2577-2.4681-8.7528-3.7687-10.8055-4.1879c-1.3551-1.8807-2.1573-3.9995-1.799-4.4523   c1.9482-2.4546,3.6279-3.9307,6.0098-3.7104c3.2715,0.3047,9.6582,1.7437,11.7832,2.6548c0.4902,0.2104,1.4893,0.623,2.7969,1.1636   c4.5264,1.8706,13.9463,5.7632,16.8516,7.3423c3.1738,1.7246,21.9775,7.5967,24.998,6.3691   c0.667-0.2729,1.1348-0.8838,1.2256-1.5991c0.0918-0.7148-0.21-1.4238-0.7871-1.855c-1.2461-0.9297-4.7695-3.792-6.0947-5.8413   c-0.3105-0.4795-0.8105-0.8032-1.375-0.8901c-0.1074-0.0166-10.7637-1.7495-15.4424-10.2095   c-0.3018-0.8115-0.5293-2.2026-0.2197-2.7075c0.1182-0.1924,0.4883-0.2632,0.7783-0.2886   c2.3916-0.2119,5.9697,1.0024,8.3398,1.8037c2.1699,0.7329,3.1699,1.0557,4.0654,0.9409c0.3184-0.0396,0.7539-0.125,1.2656-0.2285   c1.3701-0.2778,3.665-0.7417,4.875-0.2393c0.79,0.3276,4.0752,2.6519,6.7148,4.519c4.3936,3.1079,8.9365,6.3218,11.3066,7.3569   c3.3086,1.4443,7.6172,7.353,7.9893,8.9648c0.1543,0.668,0.6279,1.8794,1.5986,4.3374c2.1758,5.5103,6.2246,15.7671,6.1123,20.5977   c-0.2012,8.584,9.4707,14.8745,11.5908,16.1484c3.3135,2.3125,63.6289,44.2563,86.5254,50.0215   c3.2529,0.8193,6.2314,1.5391,8.9795,2.2031c16.6514,4.0244,24.252,5.8613,33.3506,15.0962l2.8496-2.8076   c-9.9004-10.0474-18.375-12.0957-35.2607-16.1768c-0.2112-0.051-0.4331-0.1048-0.647-0.1565   c-0.511-3.8969-0.7981-9.926-0.9377-16.8763c13.1152-9.2803,53.4169-7.6907,54.463-7.647   c1.3466,7.7524,8.8049,53.2045,2.4928,74.0474c-7.1318,23.5532-10.6504,27.3608-23.666,34.0835   c-7.0811,1.1445-13.7373-4.2329-19.623-8.9839c-3.4961-2.8213-6.5146-5.2578-9.374-6.1226   c-6.7451-2.0391-60.0938-32.5166-81.4473-53.3779C190.5576,372.8226,161.1299,345.2371,151.0566,342.1639z"/><circle cx="117.445" cy="282.3705" fill="#FF0000" opacity="0.5" r="82.8991"/></g></svg>